<?xml version="1.0" encoding="utf-8"?>
<!-- Generator: Adobe Illustrator 18.1.0, SVG Export Plug-In . SVG Version: 6.00 Build 0)  -->
<svg version="1.1" id="Layer_1" xmlns="http://www.w3.org/2000/svg" xmlns:xlink="http://www.w3.org/1999/xlink" x="0px" y="0px"
	 viewBox="0 0 500 500" enable-background="new 0 0 500 500" xml:space="preserve">
<path fill="#FFFFFF" d="M280,222.8L280,222.8l-18,0c13-19.6,20.6-43.2,20.6-68.5c0-68.2-55-123.5-123.1-124v0h-62v55.5h61.2v0
	c37.8,0,68.5,30.7,68.5,68.5s-30.7,68.5-68.5,68.5H97.5h0v55.5h0h60.7c0.1,0,0.3,0,0.4,0c0.1,0,0.3,0,0.4,0h0.5h119.6v0
	c37.8,0,68.5,30.7,68.5,68.5s-30.7,68.5-68.5,68.5H218v55.5h60.7c0.1,0,0.3,0,0.4,0c0.1,0,0.3,0,0.4,0h0.5v0
	c68.1-0.5,123.1-55.8,123.1-124C403.1,278.5,348.1,223.2,280,222.8z"/>
</svg>
