<?xml version="1.0" encoding="utf-8"?>
<!-- Generator: Adobe Illustrator 21.0.2, SVG Export Plug-In . SVG Version: 6.00 Build 0)  -->
<svg version="1.1" id="Layer_1" xmlns="http://www.w3.org/2000/svg" xmlns:xlink="http://www.w3.org/1999/xlink" x="0px" y="0px"
	 viewBox="721.1 280.8 39.5 45.6" style="enable-background:new 721.1 280.8 39.5 45.6;" xml:space="preserve">
<style type="text/css">
	.st0{fill:#FFFFFF;}
</style>
<path class="st0" d="M746.6,298.6c0.7,0,1.7-0.4,2.8-1.6v1.4h2.4v-13h-2.4v9.9c-0.3,0.4-0.9,1-1.4,1c-0.5,0-0.6-0.4-0.6-0.9v-10
	h-2.4v10.9C744.9,297.6,745.3,298.6,746.6,298.6z"/>
<path class="st0" d="M735.9,295.2c0,2.3,1.2,3.5,3.5,3.5c1.9,0,3.5-1.3,3.5-3.5v-6.4c0-2-1.5-3.5-3.5-3.5c-2.1,0-3.5,1.4-3.5,3.5
	V295.2z M738.3,289c0-0.7,0.3-1.2,1-1.2c0.7,0,1.1,0.5,1.1,1.2v6c0,0.7-0.4,1.2-1,1.2c-0.7,0-1.1-0.5-1.1-1.2V289z"/>
<polygon class="st0" points="730.1,298.4 732.8,298.4 732.8,291.3 736,280.8 733.2,280.8 731.5,287.8 729.6,280.8 726.9,280.8 
	730.1,291.3 "/>
<path class="st0" d="M755.1,301.4h-28.4c-3.1,0-5.5,2.5-5.5,5.5v14c0,3.1,2.5,5.5,5.5,5.5h28.4c3.1,0,5.5-2.5,5.5-5.5v-14
	C760.6,303.8,758.1,301.4,755.1,301.4z M730.4,322.3h-2.6v-14.3h-2.7v-2.4h7.9v2.4h-2.7V322.3z M739.6,322.3h-2.3v-1.4
	c-0.4,0.5-0.9,0.9-1.3,1.1c-1.2,0.7-2.9,0.7-2.9-1.8v-10.3h2.3v9.5c0,0.5,0.1,0.8,0.6,0.8c0.4,0,1.1-0.6,1.4-0.9v-9.4h2.3V322.3z
	 M748.5,319.7c0,1.5-0.6,2.7-2.1,2.7c-0.8,0-1.5-0.3-2.2-1.1v0.9h-2.3v-16.8h2.3v5.4c0.5-0.6,1.2-1.2,2-1.2c1.7,0,2.2,1.4,2.2,3.1
	V319.7z M756.9,316.4h-4.4v2.3c0,0.9,0.1,1.7,1,1.7c1,0,1-0.7,1-1.7v-0.9h2.4v0.9c0,2.4-1,3.8-3.4,3.8c-2.2,0-3.3-1.6-3.3-3.8v-5.5
	c0-2.1,1.4-3.6,3.5-3.6c2.2,0,3.3,1.4,3.3,3.6V316.4z"/>
<path class="st0" d="M753.6,311.8c-0.9,0-1,0.6-1,1.5v1.3h2v-1.3C754.6,312.4,754.4,311.8,753.6,311.8z"/>
<path class="st0" d="M744.6,311.8c-0.2,0.1-0.3,0.2-0.5,0.4v7.7c0.2,0.2,0.4,0.3,0.5,0.4c0.4,0.2,0.9,0.2,1.2-0.1
	c0.1-0.2,0.2-0.5,0.2-0.9V313c0-0.4-0.1-0.7-0.2-0.9C745.6,311.7,745,311.6,744.6,311.8z"/>
</svg>
