<?xml version="1.0" encoding="UTF-8" standalone="no"?>
<svg
   xmlns:dc="http://purl.org/dc/elements/1.1/"
   xmlns:cc="http://creativecommons.org/ns#"
   xmlns:rdf="http://www.w3.org/1999/02/22-rdf-syntax-ns#"
   xmlns:svg="http://www.w3.org/2000/svg"
   xmlns="http://www.w3.org/2000/svg"
   xmlns:sodipodi="http://sodipodi.sourceforge.net/DTD/sodipodi-0.dtd"
   xmlns:inkscape="http://www.inkscape.org/namespaces/inkscape"
   viewBox="0 0 529.13306 112.26"
   height="112.25999"
   width="529.13306"
   xml:space="preserve"
   id="svg2"
   version="1.1"
   inkscape:version="0.91 r13725"
   sodipodi:docname="logo_castingteam_cmyk_green.svg"><sodipodi:namedview
     pagecolor="#ffffff"
     bordercolor="#666666"
     borderopacity="1"
     objecttolerance="10"
     gridtolerance="10"
     guidetolerance="10"
     inkscape:pageopacity="0"
     inkscape:pageshadow="2"
     inkscape:window-width="1450"
     inkscape:window-height="849"
     id="namedview33"
     showgrid="false"
     inkscape:zoom="1.2206107"
     inkscape:cx="270.46492"
     inkscape:cy="-15.192215"
     inkscape:window-x="0"
     inkscape:window-y="0"
     inkscape:window-maximized="0"
     inkscape:current-layer="svg2"
     fit-margin-top="0"
     fit-margin-left="0"
     fit-margin-right="0"
     fit-margin-bottom="0" /><metadata
     id="metadata8"><rdf:RDF><cc:Work
         rdf:about=""><dc:format>image/svg+xml</dc:format><dc:type
           rdf:resource="http://purl.org/dc/dcmitype/StillImage" /><dc:title></dc:title></cc:Work></rdf:RDF></metadata><defs
     id="defs6"><clipPath
       id="clipPath18"
       clipPathUnits="userSpaceOnUse"><path
         id="path16"
         d="m 0,113.386 425.197,0 L 425.197,0 0,0 Z"
         inkscape:connector-curvature="0" /></clipPath></defs><g
     transform="matrix(1.3333333,0,0,-1.3333333,-18.1816,131.40906)"
     id="g10"
     style="fill:#000000"><g
       id="g12"
       style="fill:#000000"><g
         clip-path="url(#clipPath18)"
         id="g14"
         style="fill:#000000"><g
           transform="translate(155.5925,91.9268)"
           id="g20"
           style="fill:#000000"><path
             id="path22"
             style="fill:#000000;fill-opacity:1;fill-rule:nonzero;stroke:none"
             d="m 0,0 c 0,-3.64 -2.99,-6.63 -6.63,-6.63 -3.64,0 -6.63,2.99 -6.63,6.63 0,3.64 2.99,6.63 6.63,6.63 C -2.99,6.63 0,3.64 0,0"
             inkscape:connector-curvature="0" /></g><g
           transform="translate(282.8937,91.9268)"
           id="g24"
           style="fill:#000000"><path
             id="path26"
             style="fill:#000000;fill-opacity:1;fill-rule:nonzero;stroke:none"
             d="m 0,0 c 0,-3.64 -2.99,-6.63 -6.63,-6.63 -3.64,0 -6.63,2.99 -6.63,6.63 0,3.64 2.99,6.63 6.63,6.63 C -2.99,6.63 0,3.64 0,0"
             inkscape:connector-curvature="0" /></g><g
           transform="translate(40.0912,62.2769)"
           id="g28"
           style="fill:#000000"><path
             id="path30"
             style="fill:#000000;fill-opacity:1;fill-rule:nonzero;stroke:none"
             d="m 0,0 c -1.755,1.3 -3.835,2.34 -6.11,2.34 -4.55,0 -8.125,-3.51 -8.125,-8.125 0,-4.81 3.445,-8.19 8.32,-8.19 2.08,0 4.355,0.845 5.915,2.275 l 0,-10.01 c -2.6,-1.3 -5.46,-1.885 -8.32,-1.885 -9.88,0 -18.135,7.345 -18.135,17.42 0,10.725 8.19,18.135 18.655,18.135 2.73,0 5.46,-0.65 7.8,-1.95 z"
             inkscape:connector-curvature="0" /></g><g
           transform="translate(55.4552,56.4268)"
           id="g32"
           style="fill:#000000"><path
             id="path34"
             style="fill:#000000;fill-opacity:1;fill-rule:nonzero;stroke:none"
             d="m 0,0 c 0,-4.225 2.795,-7.475 7.605,-7.475 4.81,0 7.605,3.25 7.605,7.475 0,4.095 -2.795,7.54 -7.605,7.54 C 2.795,7.54 0,4.095 0,0 m 26.65,-16.64 -11.83,0 0,3.705 -0.13,0 c -2.08,-3.315 -6.175,-4.81 -10.075,-4.81 -9.88,0 -16.835,8.255 -16.835,17.81 0,9.555 6.825,17.745 16.705,17.745 3.835,0 7.865,-1.43 10.335,-4.355 l 0,3.25 11.83,0 z"
             inkscape:connector-curvature="0" /></g><g
           transform="translate(109.4945,64.5518)"
           id="g36"
           style="fill:#000000"><path
             id="path38"
             style="fill:#000000;fill-opacity:1;fill-rule:nonzero;stroke:none"
             d="m 0,0 c -1.82,0.975 -4.355,1.625 -6.37,1.625 -1.365,0 -3.705,-0.585 -3.705,-2.275 0,-2.275 3.705,-2.6 5.33,-2.925 5.525,-1.105 9.685,-3.705 9.685,-9.88 0,-8.775 -7.995,-12.415 -15.73,-12.415 -4.745,0 -9.425,1.365 -13.455,3.835 l 4.29,8.255 c 2.405,-1.69 6.435,-3.38 9.36,-3.38 1.495,0 3.705,0.715 3.705,2.535 0,2.6 -3.705,2.73 -7.41,3.705 -3.705,0.975 -7.41,2.795 -7.41,8.775 0,8.19 7.41,11.83 14.69,11.83 3.77,0 7.54,-0.585 10.985,-2.145 z"
             inkscape:connector-curvature="0" /></g><g
           transform="translate(132.1605,39.7867)"
           id="g40"
           style="fill:#000000"><path
             id="path42"
             style="fill:#000000;fill-opacity:1;fill-rule:nonzero;stroke:none"
             d="m 0,0 -11.83,0 0,23.595 -3.835,0 0,9.75 3.835,0 0,10.01 11.83,0 0,-10.01 6.695,0 0,-9.75 -6.695,0 z"
             inkscape:connector-curvature="0" /></g><path
           id="path44"
           style="fill:#000000;fill-opacity:1;fill-rule:nonzero;stroke:none"
           d="m 154.878,39.787 -11.83,0 0,33.345 11.83,0 z"
           inkscape:connector-curvature="0" /><g
           transform="translate(260.5825,39.7867)"
           id="g46"
           style="fill:#000000"><path
             id="path48"
             style="fill:#000000;fill-opacity:1;fill-rule:nonzero;stroke:none"
             d="m 0,0 -11.83,0 0,23.595 -3.835,0 0,9.75 3.835,0 0,10.01 11.83,0 0,-10.01 6.695,0 0,-9.75 -6.695,0 z"
             inkscape:connector-curvature="0" /></g><g
           transform="translate(281.0886,61.3019)"
           id="g50"
           style="fill:#000000"><path
             id="path52"
             style="fill:#000000;fill-opacity:1;fill-rule:nonzero;stroke:none"
             d="m 0,0 c 0.715,3.445 3.575,5.265 7.02,5.265 3.185,0 6.11,-2.08 6.695,-5.265 z m 24.7,-5.59 c 0,11.375 -6.695,18.525 -18.265,18.525 -10.855,0 -18.46,-6.695 -18.46,-17.81 0,-11.505 8.255,-17.745 19.305,-17.745 3.835,0 7.605,0.91 10.66,2.795 3.055,1.885 5.395,4.745 6.305,8.645 l -11.375,0 c -1.3,-2.21 -3.12,-3.055 -5.655,-3.055 -4.875,0 -7.41,2.6 -7.41,7.41 l 24.895,0 z"
             inkscape:connector-curvature="0" /></g><g
           transform="translate(320.9978,56.4268)"
           id="g54"
           style="fill:#000000"><path
             id="path56"
             style="fill:#000000;fill-opacity:1;fill-rule:nonzero;stroke:none"
             d="m 0,0 c 0,-4.225 2.795,-7.475 7.605,-7.475 4.81,0 7.605,3.25 7.605,7.475 0,4.095 -2.795,7.54 -7.605,7.54 C 2.795,7.54 0,4.095 0,0 m 26.65,-16.64 -11.83,0 0,3.705 -0.13,0 c -2.08,-3.315 -6.175,-4.81 -10.075,-4.81 -9.88,0 -16.835,8.255 -16.835,17.81 0,9.555 6.825,17.745 16.705,17.745 3.835,0 7.865,-1.43 10.335,-4.355 l 0,3.25 11.83,0 z"
             inkscape:connector-curvature="0" /></g><g
           transform="translate(365.766,68.9719)"
           id="g58"
           style="fill:#000000"><path
             id="path60"
             style="fill:#000000;fill-opacity:1;fill-rule:nonzero;stroke:none"
             d="m 0,0 0.13,0 c 2.795,3.705 6.24,5.265 10.53,5.265 4.81,0 8.97,-1.95 11.375,-6.37 2.275,4.16 6.76,6.37 11.31,6.37 8.45,0 11.375,-5.525 11.375,-13.195 l 0,-21.255 -11.83,0 0,15.925 c 0,3.445 0.13,9.1 -4.875,9.1 -5.46,0 -5.655,-5.135 -5.655,-9.1 l 0,-15.925 -11.83,0 0,15.925 c 0,3.705 0,9.36 -5.265,9.36 C 0,-3.9 0,-9.555 0,-13.26 l 0,-15.925 -11.83,0 0,33.345 11.83,0 z"
             inkscape:connector-curvature="0" /></g><g
           transform="translate(226.6212,50.7698)"
           id="g62"
           style="fill:#000000"><path
             id="path64"
             style="fill:#000000;fill-opacity:1;fill-rule:nonzero;stroke:none"
             d="m 0,0 c -1.252,-0.981 -2.917,-1.558 -4.941,-1.558 -4.81,0 -7.605,3.25 -7.605,7.475 0,0.683 0.079,1.347 0.231,1.981 0.759,3.167 3.366,5.559 7.374,5.559 4.81,0 7.605,-3.445 7.605,-7.54 C 2.664,3.47 1.724,1.351 0,0 m 2.274,22.362 0,-3.51 -0.13,0 c -2.34,3.315 -5.915,4.615 -9.815,4.615 -4.369,0 -8.128,-1.528 -11.001,-4.037 -3.838,-3.352 -6.094,-8.457 -6.094,-14.033 0,-0.483 0.021,-0.959 0.055,-1.43 0.63,-8.914 7.13,-15.6 16.39,-15.6 4.397,0 7.508,1.481 10.548,4.504 0.022,-0.323 0.038,-1.167 0.038,-1.167 0,-8.987 -7.286,-16.273 -16.273,-16.273 -8.988,0 -16.274,7.286 -16.274,16.273 l -0.02,0 c 0.003,0.006 0.014,0.035 0.014,0.035 l -0.001,0 -0.002,0 0,17.883 c 0,1.67 -0.151,3.231 -0.464,4.664 -1.22,5.594 -4.939,9.181 -12.081,9.181 -4.615,0 -7.93,-1.365 -10.66,-5.395 l -0.13,0 0,4.29 -11.83,0 0,-33.345 11.83,0 0,17.29 c 0,4.16 1.365,7.735 6.175,7.735 5.85,0 5.33,-5.59 5.33,-8.775 l 0,-13.563 0.001,0 -0.001,0 c 0,-15.526 12.587,-28.112 28.113,-28.112 15.367,0 27.835,12.335 28.089,27.642 l 0.023,31.128 z"
             inkscape:connector-curvature="0" /></g></g></g></g></svg>