<?xml version="1.0" encoding="UTF-8"?>
<!-- Generator: Adobe Illustrator 24.1.0, SVG Export Plug-In . SVG Version: 6.00 Build 0)  -->
<svg version="1.1" id="svg2" xmlns:cc="http://creativecommons.org/ns#" xmlns:dc="http://purl.org/dc/elements/1.1/" xmlns:inkscape="http://www.inkscape.org/namespaces/inkscape" xmlns:rdf="http://www.w3.org/1999/02/22-rdf-syntax-ns#" xmlns:sodipodi="http://sodipodi.sourceforge.net/DTD/sodipodi-0.dtd" xmlns:svg="http://www.w3.org/2000/svg" xmlns="http://www.w3.org/2000/svg" xmlns:xlink="http://www.w3.org/1999/xlink" x="0px" y="0px" viewBox="0 0 529.1 112.3" style="enable-background:new 0 0 529.1 112.3;" xml:space="preserve">
<style type="text/css">
	.st0{fill:none;}
	.st1{fill:#005CB3;}
	.st2{fill:#6B4212;}
	.st3{fill:#F23A20;}
	.st4{fill:#F78C1A;}
	.st5{fill:#FFF400;}
	.st6{fill:#5FC245;}
	.st7{fill:#86C6EF;}
	.st8{fill:#F7A2C9;}
	.st9{fill:#AA229D;}
</style>
<sodipodi:namedview bordercolor="#666666" borderopacity="1" fit-margin-bottom="0" fit-margin-left="0" fit-margin-right="0" fit-margin-top="0" gridtolerance="10" guidetolerance="10" id="namedview33" inkscape:current-layer="svg2" inkscape:cx="270.46492" inkscape:cy="-15.192215" inkscape:pageopacity="0" inkscape:pageshadow="2" inkscape:window-height="849" inkscape:window-maximized="0" inkscape:window-width="1450" inkscape:window-x="0" inkscape:window-y="0" inkscape:zoom="1.2206107" objecttolerance="10" pagecolor="#ffffff" showgrid="false">
	</sodipodi:namedview>
<rect x="-18.2" y="-19.8" class="st0" width="566.9" height="151.2"/>
<g id="g20" transform="translate(155.5925,91.9268)">
	<path id="path22" inkscape:connector-curvature="0" class="st1" d="M33.7-83.1c0,4.9-4,8.8-8.8,8.8s-8.8-4-8.8-8.8s4-8.8,8.8-8.8   S33.7-87.9,33.7-83.1"/>
</g>
<g id="g24" transform="translate(282.8937,91.9268)">
	<path id="path26" inkscape:connector-curvature="0" class="st2" d="M76.1-83.1c0,4.9-4,8.8-8.8,8.8s-8.8-4-8.8-8.8s4-8.8,8.8-8.8   S76.1-87.9,76.1-83.1"/>
</g>
<g id="g28" transform="translate(40.0912,62.2769)">
	<path id="path30" inkscape:connector-curvature="0" class="st3" d="M-4.8-13.9C-7.2-15.6-9.9-17-13-17c-6.1,0-10.8,4.7-10.8,10.8   c0,6.4,4.6,10.9,11.1,10.9c2.8,0,5.8-1.1,7.9-3V15c-3.5,1.7-7.3,2.5-11.1,2.5c-13.2,0-24.2-9.8-24.2-23.2   c0-14.3,10.9-24.2,24.9-24.2c3.6,0,7.3,0.9,10.4,2.6L-4.8-13.9z"/>
</g>
<g id="g32" transform="translate(55.4552,56.4268)">
	<path id="path34" inkscape:connector-curvature="0" class="st4" d="M0.3-0.3c0,5.6,3.7,10,10.1,10s10.1-4.3,10.1-10   c0-5.5-3.7-10.1-10.1-10.1S0.3-5.7,0.3-0.3 M35.8,21.9H20.1V17h-0.2c-2.8,4.4-8.2,6.4-13.4,6.4C-6.7,23.4-16,12.4-16-0.3   S-6.9-24,6.3-24c5.1,0,10.5,1.9,13.8,5.8v-4.3h15.8L35.8,21.9z"/>
</g>
<g id="g36" transform="translate(109.4945,64.5518)">
	<path id="path38" inkscape:connector-curvature="0" class="st5" d="M18.3-19.2c-2.4-1.3-5.8-2.2-8.5-2.2c-1.8,0-4.9,0.8-4.9,3   c0,3,4.9,3.5,7.1,3.9C19.4-13,24.9-9.5,24.9-1.3c0,11.7-10.7,16.6-21,16.6c-6.3,0-12.6-1.8-17.9-5.1l5.7-11   c3.2,2.3,8.6,4.5,12.5,4.5c2,0,4.9-1,4.9-3.4c0-3.5-4.9-3.6-9.9-4.9s-9.9-3.7-9.9-11.7c0-10.9,9.9-15.8,19.6-15.8   c5,0,10.1,0.8,14.6,2.9L18.3-19.2z"/>
</g>
<g id="g40" transform="translate(132.1605,39.7867)">
	<path id="path42" inkscape:connector-curvature="0" class="st6" d="M25.9,38.6H10.1V7.1H5v-13h5.1v-13.3h15.8v13.3h8.9v13h-8.9   V38.6z"/>
</g>
<path id="path44" inkscape:connector-curvature="0" class="st1" d="M188.3,78.4h-15.8V33.9h15.8V78.4z"/>
<g id="g46" transform="translate(260.5825,39.7867)">
	<path id="path48" inkscape:connector-curvature="0" d="M68.7,38.6H52.9V7.1h-5.1v-13h5.1v-13.3h15.8v13.3h8.9v13h-8.9V38.6z"/>
</g>
<g id="g50" transform="translate(281.0886,61.3019)">
	<path id="path52" inkscape:connector-curvature="0" class="st2" d="M75.5-11.6c1-4.6,4.8-7,9.4-7c4.2,0,8.1,2.8,8.9,7H75.5z    M108.4-4.2c0-15.2-8.9-24.7-24.4-24.7c-14.5,0-24.6,8.9-24.6,23.7c0,15.3,11,23.7,25.7,23.7c5.1,0,10.1-1.2,14.2-3.7   s7.2-6.3,8.4-11.5H92.7c-1.7,2.9-4.2,4.1-7.5,4.1c-6.5,0-9.9-3.5-9.9-9.9h33.2V-4.2z"/>
</g>
<g id="g54" transform="translate(320.9978,56.4268)">
	<path id="path56" inkscape:connector-curvature="0" class="st7" d="M88.8-0.3c0,5.6,3.7,10,10.1,10s10.1-4.3,10.1-10   c0-5.5-3.7-10.1-10.1-10.1S88.8-5.7,88.8-0.3 M124.4,21.9h-15.8V17h-0.2c-2.8,4.4-8.2,6.4-13.4,6.4c-13.2,0-22.4-11-22.4-23.7   S81.6-24,94.8-24c5.1,0,10.5,1.9,13.8,5.8v-4.3h15.8V21.9z"/>
</g>
<g id="g58" transform="translate(365.766,68.9719)">
	<path id="path60" inkscape:connector-curvature="0" class="st8" d="M103.7-29.5h0.2c3.7-4.9,8.3-7,14-7c6.4,0,12,2.6,15.2,8.5   c3-5.5,9-8.5,15.1-8.5c11.3,0,15.2,7.4,15.2,17.6V9.4h-15.8v-21.2c0-4.6,0.2-12.1-6.5-12.1c-7.3,0-7.5,6.8-7.5,12.1V9.4h-15.8   v-21.2c0-4.9,0-12.5-7-12.5c-7,0-7,7.5-7,12.5V9.4H88v-44.5h15.8V-29.5z"/>
</g>
<path class="st9" d="M287,33.9v4.7h-0.2c-3.1-4.4-7.9-6.2-13.1-6.2c-5.8,0-10.8,2-14.7,5.4c-5.1,4.5-8.1,11.3-8.1,18.7  c0,0.6,0,1.3,0.1,1.9c0.8,11.9,9.5,20.8,21.9,20.8c5.9,0,10-2,14.1-6c0,0.4,0.1,1.6,0.1,1.6c0,12-9.7,21.7-21.7,21.7  c-8,0-15-4.3-18.7-10.8v21.5c5.5,3.2,11.9,5,18.7,5c20.5,0,37.1-16.4,37.5-36.9l0-41.5H287z M284,63.7c-1.7,1.3-3.9,2.1-6.6,2.1  c-6.4,0-10.1-4.3-10.1-10c0-0.9,0.1-1.8,0.3-2.6c1-4.2,4.5-7.4,9.8-7.4c6.4,0,10.1,4.6,10.1,10.1C287.5,59.1,286.3,61.9,284,63.7z"/>
<path class="st9" d="M246.6,85.7c-1.9-3.2-3-6.9-3-10.9h0c0,0,0,0,0,0h0h0V50.9c0-2.2-0.2-4.3-0.6-6.2c-1.6-7.5-6.6-12.2-16.1-12.2  c-6.2,0-10.6,1.8-14.2,7.2h-0.2v-5.7h-15.8v44.5h15.8V55.3c0-5.5,1.8-10.3,8.2-10.3c7.8,0,7.1,7.5,7.1,11.7v18.1  c0,13.9,7.5,26,18.7,32.5V85.7z"/>
</svg>